<?xml version="1.0" encoding="utf-8"?>
<!-- Generator: Adobe Illustrator 19.2.1, SVG Export Plug-In . SVG Version: 6.00 Build 0)  -->
<svg version="1.1" id="Capa_1" xmlns="http://www.w3.org/2000/svg" xmlns:xlink="http://www.w3.org/1999/xlink" x="0px" y="0px"
	 viewBox="0 0 1080 1080" style="enable-background:new 0 0 1080 1080;" xml:space="preserve">
<style type="text/css">
	.st0{fill:#CA966A;}
	.st1{fill:#7E4E29;}
	.st2{fill:#543C33;stroke:#543C33;stroke-miterlimit:10;}
	.st3{fill:#61463C;}
	.st4{fill:#ECECEC;}
	.st5{fill:#969696;}
	.st6{fill:none;stroke:#060606;stroke-width:0.5;stroke-miterlimit:10;}
	.st7{fill:#5B5B5B;stroke:#494949;stroke-width:0.5;stroke-miterlimit:10;}
	.st8{fill:#C6C6C6;}
	.st9{fill:#36662A;stroke:#36662A;stroke-miterlimit:10;}
	.st10{fill:#418434;stroke:#418434;stroke-miterlimit:10;}
	.st11{fill:#543C33;}
	.st12{fill:#FFFFFF;stroke:#FFFFFF;stroke-miterlimit:10;}
	.st13{fill:#459B38;stroke:#469B38;stroke-miterlimit:10;}
	.st14{fill:none;stroke:#33772B;stroke-miterlimit:10;}
	.st15{fill:#3D3B98;}
	.st16{fill:#111111;}
	.st17{fill:#303144;}
	.st18{fill:#F6DDC1;}
	.st19{fill:#192A8B;}
	.st20{fill:#3E3B98;}
	.st21{fill:#FFFFFF;stroke:#FFFFFF;stroke-width:0.5;stroke-miterlimit:10;}
	.st22{fill:none;stroke:#543C33;stroke-width:0.5;stroke-miterlimit:10;}
	.st23{fill:none;stroke:#543C33;stroke-miterlimit:10;}
	.st24{fill:#FFFFFF;}
	.st25{fill:none;stroke:#C9966A;stroke-miterlimit:10;}
	.st26{fill:#330725;}
	.st27{fill:#F4C6C6;}
	.st28{fill:#F3D917;}
	.st29{fill:#DEBB9D;}
	.st30{fill:#F6110C;stroke:#000000;stroke-miterlimit:10;}
	.st31{fill:none;stroke:#000000;stroke-miterlimit:10;}
	.st32{fill:#F6DDC1;stroke:#F5DCC2;stroke-miterlimit:10;}
	.st33{fill:none;stroke:#000000;stroke-width:0.5;stroke-miterlimit:10;}
	.st34{fill:none;stroke:#61463C;stroke-miterlimit:10;}
</style>
<path class="st0" d="M407,407.7c-12.2,0.3-29.9,1.7-50.5,7.1c-21.5,5.6-36.9,9.7-39.8,19.9c-3.3,11.5,11.8,20.6,25.6,42.7
	c6.8,10.8,12.9,24.1,20.6,63.3c22.3,112.7,3.2,161.2,37,197.7c41.2,44.5,126.4,33.6,144.4,31.3c24-3.1,43.3-9.6,56.2-14.9"/>
<path class="st1" d="M325.2,434.7c8.1-0.3,14.3,6.8,22,15.6c2.5,2.9,5,5.6,7.9,10.5c7.3,12,10.5,26.4,17.7,56
	c8.2,33.9,8,35.3,10.7,57.2c2.8,22.5,6,30.3,11.7,59c11.5,57.4,17.2,86.1,17.4,91.7c0.1,3.4,0.2,10.3,5,15.6
	c7.7,8.6,21.5,6.2,34.1,6.4c24.3,0.3,23.2,11,53.3,15.6c15.4,2.3,26.6,1.8,32,1.4c12.2-0.9,21.5-3.3,24.9-4.3
	c28.7-7.9,41.5-23,46.9-18.5c5,4.2,0,22,0,22l0,0c0,0-23.8,18.7-48.4,24.2c-10.1,2.3-19.2,1.3-37-0.7c0,0-54.5-6.1-121.6-31.3
	c-0.6-0.2-11.4-4.3-11.4-4.3l0,0c0,0-10-41.7-16.4-86.1c-4.1-28.6-2.8-31.4-7.8-62.6c-2.2-13.8-4.4-26.8-8.5-44.1
	c-5.6-23-11.4-39.3-17.1-55.5c-9.3-26.2-13.9-39.3-19.2-44.8c-4.1-4.3-10.4-9.4-9.2-14.9C313.5,438.5,319.7,434.9,325.2,434.7z"/>
<polygon class="st1" points="391.3,962.4 391.3,742.6 406.3,746.2 406.3,962.4 "/>
<rect x="473.2" y="775.3" class="st1" width="14.3" height="143"/>
<polyline class="st1" points="515.1,986.6 531.5,986.6 531.5,771.1 515.1,772.5 515.1,990.1 "/>
<polygon class="st1" points="587.7,913.3 567.2,913.3 572.6,742.6 587.7,745.5 "/>
<path class="st2" d="M444.5,524.5c-25.7,0-31.1-1.4-36.3-5.6c-8.5-7-10.7-17.2-13.7-31.4c-2.1-9.9-6.7-31.7,1.5-54.9
	c3-8.5,5.4-10.6,13.7-31.6c3.1-7.9,4.9-12.3,6.6-18.2c4.7-16,3.5-22,5.9-33.2c1.2-5.6,6.1-26.6,23.5-42c4.8-4.3,17.4-14,35.8-15.9
	c12.3-1.3,33-0.5,42.2,9.6c1.2,1.3,6.8,8.1,6.8,8.1s3.5-0.4,5.4-0.5c6.5-0.5,12.3,7.9,14,10.4c9.8,14.3,3.2,47.7,1.2,57.2
	c-3,14.4-10.6,44.9-17.9,69.9c-1.5,5-4.1,13.7-2.4,24.3c0.6,4.2,1.4,5,3.4,13.9c2.7,11.6,4,17.5,2.7,21c-2.5,6.8-11.3,9.2-21.3,11.4
	C482.5,524.2,457.2,524.5,444.5,524.5z"/>
<g>
	<path class="st3" d="M507.3,333.9c0,0-0.3,0.6-0.9,1.6c-0.6,1-1.4,2.5-2.7,4.4c-1.3,1.8-2.9,4-5.1,6.2c-2.1,2.3-4.8,4.6-7.9,6.8
		c-1.6,1.1-3.3,2.1-5.2,3c-1.9,0.9-3.8,1.7-5.7,2.6c-1.9,0.9-3.8,1.9-5.4,3.3c-0.4,0.3-0.8,0.7-1.2,1.1c-0.4,0.4-0.8,0.8-1.2,1.2
		c-0.4,0.4-0.8,0.9-1.1,1.3c-0.3,0.4-0.7,0.9-1,1.3c-2.7,3.6-4.4,8.1-5.6,12.8c-0.6,2.3-1.1,4.8-1.6,7.2c-0.3,1.3-0.4,2.4-0.6,3.6
		c-0.2,1.2-0.3,2.4-0.3,3.6c-0.1,2.4,0,4.9,0.1,7.4c0.1,2.5,0,5.1-0.2,7.6c-0.4,5-1.3,10-2.5,14.6c-1.3,4.6-2.8,8.9-4.2,13
		c-1.4,4.1-2.8,8-4.1,11.5c-2.7,7.1-5.3,12.9-7,16.9c-0.9,2-1.7,3.6-2.2,4.6c-0.5,1.1-0.8,1.6-0.8,1.6s0.9-2.4,2.4-6.5
		c1.6-4.1,3.6-10.1,6-17.2c1.2-3.6,2.3-7.5,3.6-11.6c1.2-4.1,2.6-8.5,3.7-13c0.6-2.3,1.1-4.6,1.4-6.9c0.3-2.3,0.6-4.8,0.8-7.2
		c0.2-2.4,0.2-4.9,0.1-7.3c-0.1-2.5-0.2-5-0.1-7.6c0.1-2.6,0.5-5.2,1-7.7c0.5-2.5,1.1-4.9,1.7-7.4c1.3-4.9,3.3-9.7,6.3-13.6
		c0.4-0.5,0.8-1,1.2-1.5c0.4-0.4,0.8-0.9,1.2-1.3c0.4-0.4,0.9-0.8,1.3-1.3c0.5-0.4,0.9-0.8,1.4-1.1c1.9-1.5,4-2.6,6-3.4
		c2-0.9,4-1.6,5.8-2.4c1.8-0.8,3.6-1.7,5.1-2.7c3.2-2,5.9-4.1,8.1-6.1c2.2-2.1,4-4.1,5.4-5.8c1.4-1.7,2.4-3.1,3-4.1
		C507,334.4,507.3,333.9,507.3,333.9z"/>
</g>
<g>
	<path class="st3" d="M530.5,328c0,0,0.7,0.5,1.8,1.5c1.2,1,2.9,2.4,4.9,4.4c2,2,4.4,4.6,6.7,7.8c1.2,1.6,2.4,3.4,3.6,5.3
		c1.2,1.9,2.4,3.9,3.5,6.2c1,2.2,2,4.7,2.4,7.4c0.1,0.7,0.2,1.3,0.2,2.1c0,0.7,0.1,1.3,0,2.1c0,0.7-0.1,1.4-0.2,2.1l-0.2,1.1l-0.3,1
		c-0.7,2.8-2.1,5.5-3.7,8c-1.6,2.5-3.5,4.9-5.3,7.3c-0.9,1.2-1.8,2.4-2.7,3.7c-0.8,1.2-1.7,2.6-2.5,3.9c-0.9,1.3-1.6,2.7-2.3,4.1
		c-0.7,1.4-1.5,2.8-2.1,4.2c-0.6,1.5-1.3,2.9-1.8,4.4c-0.5,1.5-1.1,3-1.6,4.5c-0.4,1.5-0.9,3.1-1.3,4.6c-0.4,1.6-0.7,3.1-1.1,4.7
		c-1.3,6.3-2.1,12.7-2.4,19.1c-0.3,6.4-0.1,12.6,0.4,18.7c1.1,12.2,2,23.5,3,33.2c0.2,1.2,0.2,2.4,0.5,3.5c0.3,1.1,0.6,2.2,0.9,3.3
		c0.5,2.2,0.7,4.4,0.7,6.4c-0.1,4.1-1.4,7.5-3,9.8c-1.6,2.4-3.4,3.8-4.6,4.7c-1.2,0.9-1.9,1.3-1.9,1.3s0.7-0.4,1.9-1.4
		c1.2-1,2.9-2.5,4.4-4.9c1.5-2.4,2.7-5.7,2.6-9.6c0-2-0.3-4-0.9-6.1c-0.3-1.1-0.6-2.2-0.9-3.3c-0.4-1.2-0.5-2.4-0.7-3.6
		c-0.6-4.9-1.2-10.1-1.8-15.7c-0.6-5.6-1.2-11.4-1.8-17.5c-1.2-12.2-0.9-25.5,1.7-38.4c0.4-1.6,0.7-3.2,1.1-4.8
		c0.5-1.6,0.9-3.2,1.4-4.7c0.6-1.5,1.1-3.1,1.6-4.6c0.5-1.5,1.3-3,1.9-4.5c0.6-1.5,1.4-2.9,2.2-4.4c0.8-1.4,1.5-2.9,2.4-4.2
		c0.9-1.3,1.6-2.6,2.6-4c0.9-1.3,1.8-2.5,2.8-3.7c1.9-2.4,3.7-4.8,5.4-7.1c1.6-2.4,3-4.9,3.7-7.5l0.3-1l0.2-1
		c0.1-0.7,0.2-1.3,0.2-1.9c0.1-0.6,0-1.3,0-2c0-0.6-0.1-1.3-0.1-1.9c-0.3-2.5-1.1-4.9-2.1-7.1c-1-2.2-2.2-4.2-3.3-6.1
		c-1.1-1.9-2.2-3.7-3.3-5.3c-2.2-3.3-4.5-5.9-6.4-8c-1.9-2.1-3.6-3.6-4.7-4.6C531.1,328.5,530.5,328,530.5,328z"/>
</g>
<g>
	<path class="st3" d="M552.9,452.8c0,0-0.4-0.4-1-1.3c-0.6-0.9-1.6-2.2-2.5-4.1c-0.9-1.8-1.7-4.2-2-7.1c-0.1-0.7-0.1-1.5-0.1-2.2
		c0-0.8,0.1-1.6,0.2-2.4c0.3-1.6,0.8-3.2,1.5-4.9c1.3-3.3,2.8-6.7,3.9-10.5c0.5-1.9,1-3.9,1.4-5.9c0.4-2,0.6-4.1,0.7-6.3
		c0.3-4.3,0.3-8.8,0.4-13.4c0.1-4.5-0.2-9.2-0.3-13.8c-0.1-4.7-0.1-9.3,0-13.9c0-4.6,0.5-9.1,0.3-13.4c-0.2-4.3-0.5-8.5-0.9-12.5
		c-0.4-3.9-1.1-7.6-2.5-10.7c-0.7-1.6-1.6-2.9-2.5-4.2c-0.9-1.3-1.9-2.4-2.9-3.3c-2-1.9-4.1-3.3-5.8-4.3c-1.8-1-3.2-1.6-4.2-2.1
		c-1-0.4-1.6-0.6-1.6-0.6s0.6,0.2,1.6,0.5c1,0.4,2.5,0.9,4.4,1.8c1.8,0.9,4,2.2,6.1,4.1c2.2,1.9,4.3,4.4,5.9,7.6
		c1.6,3.2,2.4,7,2.9,11c0.5,4,0.9,8.2,1.1,12.6c0.3,4.4,0,9-0.1,13.5c-0.1,4.6,0,9.2,0.1,13.8c0.1,4.6,0.3,9.3,0.2,13.9
		c-0.1,4.6-0.3,9.1-0.6,13.5c-0.2,2.2-0.5,4.4-0.9,6.4c-0.4,2.1-1,4.1-1.5,6c-0.6,1.9-1.3,3.8-2,5.5c-0.8,1.7-1.5,3.4-2.2,5
		c-1.4,3.1-2.2,6.2-1.9,9c0.1,2.8,0.9,5.2,1.6,7c0.8,1.9,1.6,3.2,2.2,4.2C552.6,452.4,552.9,452.8,552.9,452.8z"/>
</g>
<rect x="549.1" y="582.5" class="st4" width="357.9" height="20.8"/>
<rect x="570.4" y="603.3" class="st4" width="304.6" height="62.4"/>
<rect x="570.4" y="603.3" class="st5" width="304.6" height="11.3"/>
<rect x="585.4" y="614.6" class="st6" width="272.6" height="39.4"/>
<rect x="665.9" y="628.3" class="st7" width="107.7" height="10.1"/>
<rect x="833.9" y="665.7" class="st8" width="25.2" height="25.2"/>
<rect x="586.4" y="665.7" class="st8" width="25.2" height="25.2"/>
<rect x="833.9" y="690.9" class="st4" width="24" height="293.2"/>
<rect x="587.1" y="690.9" class="st4" width="24" height="293.2"/>
<path class="st9" d="M951.8,669.1c1.6-11.9,11.6-21.6,13.4-20.6c1.2,0.7-2.4,6.2,0,12.9c0.2,0.6,1.7,4.4,3.2,4.3
	c1.7-0.1,1.9-4.9,5-12.6c1.9-4.6,3.5-8.6,5.3-8.5c3.3,0.1,4.6,13.2,7.1,13.1c1.6-0.1,1.8-5.7,6.3-13.9c2.1-3.8,3.3-6,5.4-6.3
	c4.2-0.5,6.9,8.2,10,7.6c2.5-0.5,2-6.3,6.4-15.4c2-4.1,3.7-7.6,6-7.6c3.6,0,3.8,8.6,9.4,10.5c5.6,1.9,11.5-4.6,12.9-3.1
	c1.3,1.4-4.7,6.1-5.8,13.7c-1.4,9.8,6.4,17.5,4.4,19.3c-2.1,1.9-10.4-7.2-14.3-5c-4.6,2.7,2,18.6-2.1,20.8
	c-4,2.2-14.7-11.1-16.8-9.5c-2,1.5,5.8,13.8,3.5,15.6c-2.5,2-13.1-11.5-20.1-8.6c-5.3,2.1-4.5,11.9-8.4,12.4
	c-4.3,0.5-6.9-11-12.4-10.9c-4.5,0.1-5.7,8.1-10.3,8c-3.7-0.1-6.8-5.4-7.8-9C951.5,673.6,951.5,671.2,951.8,669.1z"/>
<path class="st10" d="M954.2,666.9c-6.3-10.2-4.8-24.1-2.7-24.4c1.4-0.2,2,6.3,8.2,10c0.6,0.3,4.1,2.4,5.2,1.3
	c1.2-1.2-1.6-5-4.1-12.9c-1.5-4.8-2.8-8.8-1.3-9.9c2.6-2,12,7.3,13.8,5.6c1.2-1.1-2.2-5.5-3.9-14.7c-0.8-4.2-1.2-6.8,0.2-8.3
	c3-3.1,10.5,2,12.5-0.5c1.6-2-2.5-6.1-4.8-16c-1.1-4.4-2-8.3-0.2-9.7c2.7-2.3,8.4,4.2,13.9,2.1c5.5-2.1,6-10.8,8-10.6
	c1.9,0.2,0.2,7.7,4.2,14.2c5.2,8.5,16.1,9.5,15.6,12.1c-0.5,2.8-12.7,1-14.2,5.2c-1.8,5,13.3,13.1,11.6,17.4
	c-1.7,4.3-18.4,0.7-19,3.3c-0.6,2.4,13.2,6.9,12.6,9.8c-0.7,3.1-17.4-0.6-21,6.1c-2.7,5,4.1,12.1,1.4,14.9c-3,3.1-12.3-4.1-16.5-0.5
	c-3.4,3,0.7,9.9-2.9,12.7c-2.9,2.3-8.6,0.1-11.8-2C956.8,670.5,955.3,668.6,954.2,666.9z"/>
<g>
	<path class="st11" d="M515.7,315.7c0,0-1,0-2.7,0.1c-1.8,0.1-4.4,0.3-7.7,0.8c-3.3,0.5-7.3,1.3-11.7,2.7c-4.4,1.4-9.2,3.5-13.9,6.5
		c-1.1,0.8-2.4,1.6-3.5,2.5c-0.6,0.4-1.2,0.9-1.7,1.3c-0.6,0.5-1.1,1-1.7,1.5l-0.9,0.8l-0.8,0.8c-0.5,0.5-1,1.1-1.6,1.6
		c-0.5,0.6-1,1.2-1.4,1.8c-0.2,0.3-0.5,0.6-0.7,0.9l-0.6,1c-3.6,5.2-5.8,11.7-8.2,18.5c-2.4,6.8-4.8,13.8-7.6,20.8
		c-2.8,7-6,14-9.3,21l-2.6,5.1c-0.9,1.7-1.8,3.4-2.7,5.1c-1.8,3.4-3.7,6.7-5.6,10c-3.8,6.6-7.9,12.7-10.7,19.1
		c-1.4,3.2-2.6,6.4-3.7,9.7c-0.2,0.8-0.5,1.6-0.7,2.4l-0.4,1.2l-0.3,1.2c-0.2,0.8-0.4,1.6-0.6,2.4c-0.2,0.8-0.3,1.6-0.5,2.4
		c-1.2,6.4-1.8,12.5-2.4,18.2c-0.5,5.7-0.8,10.9-1,15.6c-0.2,4.6-0.3,8.7-0.3,12c0,6.7,0.1,10.5,0.1,10.5s-0.1-1-0.3-2.7
		c-0.2-1.8-0.4-4.4-0.6-7.8c-0.2-3.3-0.4-7.4-0.5-12.1c-0.1-4.7-0.1-10,0.2-15.7c0.3-5.8,0.7-12,1.7-18.6c0.1-0.8,0.3-1.7,0.4-2.5
		c0.2-0.8,0.3-1.7,0.5-2.5l0.3-1.2l0.3-1.3c0.2-0.8,0.4-1.7,0.7-2.5c1-3.4,2.2-6.8,3.6-10.2c1.4-3.4,3.2-6.7,5-9.9
		c1.8-3.2,3.7-6.5,5.6-9.7c1.9-3.2,3.7-6.6,5.5-9.9c0.9-1.7,1.7-3.4,2.6-5l2.5-5.1c3.3-6.8,6.5-13.7,9.3-20.7
		c2.8-6.9,5.4-13.8,7.9-20.6c0.6-1.7,1.2-3.4,1.9-5c0.3-0.8,0.7-1.6,1-2.5c0.4-0.8,0.7-1.6,1.1-2.4c1.5-3.2,3.1-6.3,5.1-9.1l0.7-1
		c0.3-0.3,0.5-0.7,0.8-1c0.5-0.6,1.1-1.3,1.6-1.9c0.6-0.6,1.2-1.2,1.8-1.8c0.3-0.3,0.6-0.6,0.9-0.9l0.9-0.7c0.6-0.5,1.2-1,1.8-1.5
		c0.7-0.5,1.3-0.9,1.9-1.4c1.2-0.9,2.5-1.7,3.8-2.5c5.1-2.9,10.1-4.9,14.7-6c4.6-1.2,8.6-1.7,12-2c3.4-0.3,6-0.3,7.8-0.2
		C514.7,315.6,515.7,315.7,515.7,315.7z"/>
</g>
<polygon class="st12" points="480.3,372.8 480.3,387 502.9,387 502.1,372.8 "/>
<path class="st13" d="M950.5,655.1c-10.5-5.8-16-18.6-14.4-19.9c1.1-0.9,4.9,4.5,12.1,4.6c0.7,0,4.7,0,5.2-1.4
	c0.5-1.6-3.8-3.5-10-9.2c-3.7-3.4-6.7-6.3-6-8c1.3-3.1,14,0.4,14.8-2c0.5-1.6-4.7-3.7-10.7-10.8c-2.8-3.3-4.4-5.3-3.9-7.3
	c1.1-4.1,10.1-3.4,10.7-6.6c0.4-2.5-5.2-4.1-12.1-11.6c-3.1-3.3-5.8-6.2-5-8.4c1.3-3.3,9.4-0.4,13.2-5c3.7-4.5-0.1-12.4,1.8-13.2
	c1.8-0.7,4,6.6,10.7,10.3c8.7,4.9,18.7,0.3,19.6,2.8c1,2.7-10.5,7.1-9.8,11.6c0.9,5.3,18.1,4.8,18.7,9.4c0.6,4.6-15.7,9.7-14.9,12.3
	c0.7,2.4,14.9-0.5,15.8,2.3c1,3-15.4,8.1-15.3,15.6c0.1,5.7,9.5,8.5,8.5,12.3c-1,4.2-12.8,2.5-14.6,7.6c-1.5,4.2,5.5,8.2,3.7,12.4
	c-1.4,3.4-7.4,4.4-11.2,4.1C954.6,657,952.4,656.1,950.5,655.1z"/>
<path class="st14" d="M954.6,672.5c7.2-5.9,15.8-14.2,23.8-25.6c13.8-19.6,19.2-39,21.5-51"/>
<path class="st14" d="M970.4,682.3c3.4-4.9,10.8-14,23.3-20.4c9.2-4.7,17.7-6.2,23.1-6.8"/>
<path class="st14" d="M944.6,669.2c10.7-19.5,9.2-17.1,10.8-25.8c2.7-13.9,3.3-24.8,3-29.5c-0.7-12.7-3.9-22.2-5.3-26.3
	c-1.1-3-2.2-5.5-3-7.3"/>
<path class="st1" d="M973.4,668.7L950.4,650c-0.3-0.2-0.5-0.4-0.8-0.5c-15.7-8.9-15.9-8.9-27.2,4.3c-0.3,0.3-0.5,0.6-0.7,1
	l-23.3,36.1c-6.5,9-4.9,18.4,4,24.9l21.7,15.6c9,6.5,21.4,6,27.9-2.9l29.7-30.6c0.2-0.2,0.4-0.5,0.6-0.7
	c11.2-14.2,13.2-11.6-2.5-24.6C979.5,672.4,973.6,668.8,973.4,668.7z"/>
<path class="st15" d="M598.5,1025.1c1.4-0.9,10.5-6.5,10.7-16c0.1-8.5-6.9-13.9-7.5-14.4c-4.6-3.5-9.5-7.2-12.8-10.7
	c-7.6-7.9-7.3-6.1-11.7-22.4c-7.1-26.2-9.9-24.1-10.1-33.6c-0.2-10.6,19.5-28.8,17.2-34.9c-2.6-6.6-34.9-8.8-49.2,6.5
	c-18.3,19.6-2.6,72.8,31.5,124.9"/>
<path class="st15" d="M536.7,883.4c-3.6,12-5.1,23.7-8.6,29.2c-7.9,12.6-13.4,15.2-18.7,27.7c-3,7-6.4,15.3-3.7,24
	c1.5,5,4.1,6.9,13.3,16.5c12.7,13.2,9.7,11.4,18.1,19.7c13.8,13.7,20.6,20.5,29.3,24"/>
<path class="st15" d="M623.3,893.1c2.9,12.3,2.3,21.8,1.1,28.3c-1.3,7-3.4,11.5-6.4,25.6c-2.9,13.8,1.4,14.1,2.7,16
	c2.4,3.5,2.6,5.4,20.3,7.5c11.3,1.3,17.6,2.1,24.5,3.7c10.1,2.4,10.2,3.8,21.9,7.5c17.2,5.3,30.1,9.3,40,3.2
	c0.8-0.5,8.5-5.4,9.1-13.3c0.5-8.2-6.9-14.2-9.1-16c-6.9-5.6-8.1-6.8-26.1-12.3c-10.2-3.1-14.9-4.8-19.7-8.6
	c-7.1-5.5-14-9.5-16.5-14.9c-6.9-14.8-7.2-29.2-6.4-38.4"/>
<path class="st0" d="M977.5,685.3c-3.7,4.4-5.6,6.6-8.7,12.4c-4.9,9.3-13.6,14.9-21,19.6c-7.1,4.6-13.8,8.8-22,7.8
	c-4.8-0.6-8.3-2.7-8.5-2.1c-0.3,0.7,5.7,4.9,13,7.3c4.4,1.4,10.7,3.4,14,0.5c1.4-1.2,1.5-2.7,4.1-5.2c1.8-1.7,3.4-2.6,4.1-3
	c4.4-2.6,8.6-7.1,13.9-12.8c6.4-6.9,9.7-10.4,12.3-15.8c2.5-5.3,4.4-11.8,3.2-12.4C981.5,681.5,980.8,681.5,977.5,685.3z"/>
<path class="st16" d="M487.4,643.2c29,3.5,62.6,14.8,76.7,21.3c20.2,9.4,17.4,7.4,43.5,20.3c13.9,6.8,30.7,13.9,41.6,28.3
	c4.4,5.9,6.7,11.4,7.2,12.5c4.1,10.2,4,19,4,22.4c-0.2,19.8,0.9,39.7,0.3,59.5c-0.5,17.3-1.3,42.1-1.1,64.3c0,0,0,0.4,0.3,22.9l0,0
	c-6.4,3.7-11.9,6.3-16,8c-7.5,3.2-19.1,8-21.9,4.5c-0.7-0.9-0.6-2-0.5-2.7c0.1-1.7-4-10.3-6.9-28c-1.6-9.4-1.6-9.4-2.1-19.5
	c-0.3-5-2.2-11.7-2.9-32.5c-1-27.2,0.4-32.3-1.3-49.1c-1-9.8-34.4-56.1-35.5-61.1"/>
<path class="st17" d="M425.2,680c0.7,6.5,3,18,10.9,29.6c10,14.5,23.2,20.6,30.7,24c8.5,3.8,19.5,5.5,41.1,8.5c28,4,33,2.8,49.6,7.2
	c5,1.3,22,6.1,22.1,6.1c0,0,1.9,2.4,1.9,2.4c0.6,0.8,0.8,1,0.8,1c2.6,3.4-7.7,19.5-7.7,19.5c-0.2,0.4-3.8,8.8-10.9,25.6
	c-4.5,10.6-7.7,20.2-14.1,39.5c-7.9,23.7-14.9,46.9-14.9,46.9c5.9,6.1,11.7,9.8,15.7,12c2.1,1.2,9.1,4.7,17.1,6.4
	c1.3,0.3,8,1.6,8,1.6c7-14.2,13.6-26.2,19.2-35.7c11.2-19.2,14.7-22.6,23.2-38.7c9.5-17.8,6.8-16.7,17.1-36.3
	c10.8-20.7,14.8-23.9,16.8-35.5c1-5.5,3.3-19-3.7-31.5c-2.2-4-5.7-8.4-20.3-18.1c-17-11.4-31.2-18.1-33.6-19.2
	c-27.4-12.8-34.9-13.4-55.7-22.9c-9.5-4.3-23.6-11.4-40.3-22.1"/>
<path class="st18" d="M536.8,659.4c-0.3,3.8-0.3,10.2,2.5,17.2c0.7,1.8,3.1,7.4,8.5,12.6c1.6,1.6,5.4,4.9,10.5,5.9
	c2.9,0.6,4-0.1,4.4-0.5c1-1,1.8-5.5,1.4-4.1c-3.3-2.8-6.5-5.7-9.8-8.5c-0.4-1.1-0.3-1.7,0-2c0,0,0.5-0.6,5.3,0.4
	c4.9,2.6,9.8,5.2,14.8,7.8c0.9,3.2,1,5.8,0.9,7.6c-0.2,3.7-1.1,5.6,0.2,7.6c0.8,1.3,2.5,2.4,3.7,2.1c0,0,0.7-0.2,2.8-3.2
	c0.4-6,0.5-8.5,0.5-9.5c0-1.2,0.3-2.4,0-3.5c0,0,0-0.1,0-0.1c0.2-0.2,2,1.8,2.1,2c0,0,0.4,0.7-0.2,17.8c0.2,0.3,1.7,2,3.9,2
	c1.4,0.1,3-0.8,3.4-2c0.3-1-0.2-1.8-0.1-2.1c0.2-0.9-0.2-1.8-0.1-2.6c0,0,0.5-1.6-0.5-10.7l0,0c1.9,1.6,2.6,3.2,2.8,4.3
	c0.5,1.7,0,2.5,0.2,5.7c0.2,2.7,0.3,4,1.1,4.6c1.7,1.3,2.6,0,5.1-1l0.6-1.8c-0.2-4.7-0.5-5.2,0-7.4c0.3-1.5,0.1-2.8-0.6-3.7
	c-0.5-0.7-0.5-0.7-1.5-2.1c-0.1-0.2-0.7-1-0.6-1.2c0.1-0.4,0.9-0.2,2.1,0.5c1.9,1.1,1.2,3.2,3.2,5c1.2,1.1,3.3,1.8,4.3,1.1
	c1.2-0.9,0.5-3.5,0.2-4.6c0,0-0.7-2.6-2.1-4.4c-2.4-3-22.6-16.8-51-34.7"/>
<path class="st18" d="M423,715.8l-1.3,15.2c0,0.3,0,0.7,0.1,1l3.1,8.4c0.1,0.3,0.3,0.6,0.5,0.8l11.8,12.1c0.2,0.3,0.4,0.6,0.5,0.9
	l2.4,7.4c0.1,0.2,0.1,0.5,0.1,0.7v7.8c0,0.8,0.4,1.5,1,1.9l1.4,0.9c0.6,0.4,1.4,0.5,2.1,0.3l0.7-0.3c0.9-0.3,1.5-1.2,1.5-2.2v-8.5
	c0-0.2,0-0.4-0.1-0.6l-1.8-6.9l-1.3-4.6c0,0,0-0.1,0-0.1l-1.1-4.9l2.9,3.2l2.9,3.1c0.2,0.2,0.4,0.5,0.5,0.9l1.6,5
	c0.1,0.2,0.1,0.5,0.1,0.7v6v7.8c0,0.6,0.3,1.2,0.7,1.7l1.2,1.1c0.8,0.7,1.9,0.8,2.8,0.3l2.5-1.6c0.7-0.4,1-1.1,1-1.9v-6.2v-6.4
	c0-0.4-0.1-0.7-0.2-1l-2-4.6c-0.2-0.4-0.7-2-0.7-2.5l0.4-2.3l2.4,2.6c0,0.1,0.1,0.1,0.1,0.1l3.2,3.5c0.3,0.3,0.5,0.7,0.6,1.1
	l1.2,5.2c0,0.1,0,0.1,0.1,0.2l2.1,6.2c0,0.1,0,0.1,0,0.2l1,3.9c0.2,1,1.1,1.7,2.1,1.7l0.9,0c1.3,0.1,2.4-1,2.4-2.3v-3.5v-4.4
	c0-0.4-0.9-3.4-1.1-3.7l-0.8-2.1c-0.1-0.1-0.7-1.9-0.7-2l-3.6-7.7l2.4-0.4l3.7,4.5c0.1,0.1,0.1,0.1,0.2,0.2l4.9,6.1
	c0.4,0.5,0.9,0.8,1.5,0.8l0,0c2.3,0.2,4.3-1.4,4.5-3.7l0.1-0.9c0.1-0.6-0.1-1.1-0.4-1.6l-5.9-8.1l-5.1-6.7l-8.6-12
	c-0.1-0.1-0.2-0.3-0.4-0.4l-10.8-9.4c0,0-0.1-0.1-0.1-0.1l-6-5.8"/>
<path class="st19" d="M531.5,665.8c4.9,0.2,5.8-4.4,16.7-7.1c5.3-1.3,7.8-0.9,10-3.2c3.4-3.7,1.8-10.4,1.1-13.5
	c-4.3-17.3-10.6-31.3-14.6-41.6c-1.7-4.5-6.8-17.9-12.1-34.8c-4-12.9-4.6-16.2-7.5-17.1c-8.8-2.6-28.7,20.5-27.4,42.3
	c0.1,1.8,1.6,7,4.6,17.4c4.5,15.7,6.8,23.6,10,30.9C518,652.7,523.5,665.5,531.5,665.8z"/>
<path class="st19" d="M413.4,714c7.3,4.9,13.1,5.7,17.1,5.3c0,0,4.6-0.4,21-9.2c-0.3-14.9-0.8-31.5-1.6-39.3
	c-3-30.7-3-45.8-4.7-53.8c-1.5-7,0.5-18.3,5.5-31.9c8.3-22.7,15.5-33.9,16.8-49.4c2.4-28.8-20.2-62.5-31.5-60.4
	c-3.7,0.7-10.5,10.1-16.1,22.7c-4.8,10.7-9.2,20.4-13.6,37.1c-4.6,17.5-3.3,19.6-9.6,46.7c-3.7,16-4.2,15.2-4.8,20.8
	c-1.5,13.6,0.6,23.7,4.8,42.7c5.5,24.8,8.1,24.3,9.3,37.1c0.3,3.3,1.1,12.9,4.8,25.1c0.7,2.4,1.4,4.3,1.9,5.6"/>
<path class="st20" d="M433.7,476.4c-0.8-4,16.2-12.8,19.5-16.9c0,0,0-0.1,0.1-0.1c2.2-1.3,31.4,36.4,34.8,35.6
	c9-2.3,11.7-16.7,18.5-15.6c4.2,0.6,4.6,6.7,13.5,23.6c5.3,9.9,6.2,9.9,9.1,16.5c4.7,10.8,7.2,16.6,6,23.5c0,0-1.2,7.6-20.8,26.7
	c0,0-3.3,8.7-4.4,12.1c-1.4,3.9-4.8,13.8-5.2,25.2c-0.2,8.1,1.2,14.9,2.5,21.3c1.7,8.3,3.9,14.8,1.6,20.8c-0.4,1-2.8,6.9-2.8,6.9
	c0,0-12.8,5.7-25.6,9.2c-15.1,4.2-30.6,5.5-30.6,5.5c0,0-2-14-3-29.5c-0.5-7.8-0.6-13.6-2.1-19.7c-0.2-0.8-1.5-5.9-1.5-5.9l-0.4-7.4
	c0,0,0.4-3.1,2.1-11.4c1.6-7.5,4.2-8.5,5.9-16c1-4.3,2-4.3,6.2-13.5c0.9-1.9,2.3-6.1,5-14.2c2.3-7.1,3.9-12.5,4.5-17.6
	c0.1-1-2.5-11.1-7.4-22.2C450.1,492.6,434.3,479.4,433.7,476.4z"/>
<path class="st0" d="M124.2,687.8c0.7-0.2,201.3,0,201.3,0v189.6H124.2V687.8z"/>
<path class="st0" d="M30.5,380.4c0.7-0.2,201.3,0,201.3,0V570H30.5V380.4z"/>
<path class="st19" d="M467.2,448.5c-1.1-0.6-5.5-2.8-9.9-2c-1.3,0.2-5.1,0.8-7.2,3.9c-2.4,3.4-1.3,7.8-0.7,10.1
	c1,3.6,3,7.7,13.3,17.2c6.3,5.7,12.2,10.3,23.6,19.1c0,0,0.1,0.1,3.5,2.7c6.6-5.6,13.2-11.1,19.9-16.7c0.6-1.2,1.5-3.1,2-5.6
	c0-0.1,0-0.2,0.1-0.4c0.2-1.3,0.7-9.2-3.2-10.9c-2-0.9-3.7-0.9-4.8-0.3c-3.3,1.9-4.5,3-6.5,6.3c-1.8,3-10.6,12.4-7.6,11.1
	c1.2-0.5-19.6-23.7-23.2-32.3"/>
<rect x="320.3" y="687.6" class="st1" width="7.4" height="189.7"/>
<path class="st21" d="M215.8,844.3c-9.1-8.8-19.5-18.5-30.4-36.6c-9.8-16.1-20.2-35.6-12.8-55.5c7.4-19.8,28.1-27.1,29.9-27.7
	c14.8-5,27.4-1.2,31.3,0c4.9,1.6,16.6,5.4,24.9,17.1c8.4,11.8,8,24.4,7.8,29.9c-0.6,14.9-7.4,25.5-14.2,36.3
	c0,0-12.4,15.1-33.9,39.1l-13.6-13.5"/>
<ellipse class="st0" cx="218.3" cy="767.6" rx="30.6" ry="29.6"/>
<path class="st22" d="M877.5,678.5c-8.2,6.5-11.8,17.1-9.4,26.9c3.3,13.2,15.9,18,16.8,18.3"/>
<path class="st22" d="M889.4,678.5c-8.2,6.5-11.8,17.1-9.4,26.9c3.3,13.2,15.9,18,16.8,18.3"/>
<path class="st22" d="M917.4,759.9c7.1,7.7,17.9,10.6,27.5,7.5c13-4.2,16.8-17.1,17.1-18.1"/>
<path class="st22" d="M917.4,748.2c7.1,7.7,17.9,10.6,27.5,7.5c13-4.2,16.8-17.1,17.1-18.1"/>
<path class="st0" d="M133.8,45.9c0.7-0.2,201.3,0,201.3,0v189.6H133.8V45.9z"/>
<path class="st0" d="M597.7,45.9c0.7-0.2,201.3,0,201.3,0v189.6H597.7V45.9z"/>
<rect x="231.8" y="380.3" class="st1" width="7.4" height="189.7"/>
<rect x="335.1" y="45.8" class="st1" width="7.4" height="189.7"/>
<rect x="590.4" y="45.8" class="st1" width="7.4" height="189.7"/>
<line class="st23" x1="227.9" y1="235.6" x2="227.9" y2="310.1"/>
<line class="st23" x1="305.1" y1="308.2" x2="228" y2="308.2"/>
<ellipse transform="matrix(0.9806 -0.1961 0.1961 0.9806 -54.9008 65.8432)" class="st2" cx="305" cy="310.1" rx="5.5" ry="5.5"/>
<line class="st23" x1="229.4" y1="613.3" x2="306.5" y2="613.6"/>
<line class="st23" x1="224.2" y1="688.1" x2="223.9" y2="613.6"/>
<line class="st23" x1="301" y1="613.3" x2="223.9" y2="613.6"/>
<ellipse transform="matrix(0.1927 -0.9813 0.9813 0.1927 -358.7956 790.5038)" class="st2" cx="301" cy="613.3" rx="5.5" ry="5.5"/>
<line class="st23" x1="292.2" y1="475.2" x2="239.2" y2="475.4"/>
<ellipse transform="matrix(0.1927 -0.9813 0.9813 0.1927 -224.5216 677.4045)" class="st2" cx="299.4" cy="475.1" rx="5.5" ry="5.5"/>
<line class="st23" x1="696.7" y1="232.8" x2="696.7" y2="307.4"/>
<line class="st23" x1="616.9" y1="307.4" x2="694" y2="307.4"/>
<ellipse transform="matrix(0.1961 -0.9806 0.9806 0.1961 196.6859 854.6929)" class="st2" cx="619.6" cy="307.4" rx="5.5" ry="5.5"/>
<ellipse class="st24" cx="234.5" cy="129.9" rx="40.8" ry="38.4"/>
<path class="st24" d="M183.8,216.2c0-23.4,24.4-42.4,54.4-42.4s54.4,19,54.4,42.4"/>
<rect x="639.8" y="105.6" class="st12" width="117.9" height="83.7"/>
<line class="st25" x1="634.3" y1="101.5" x2="695.8" y2="148.2"/>
<line class="st25" x1="765.7" y1="100.1" x2="695.2" y2="147.8"/>
<line class="st25" x1="680" y1="135.7" x2="636.5" y2="193.7"/>
<line class="st25" x1="761.9" y1="194.9" x2="715.7" y2="133.9"/>
<path class="st26" d="M949.8,542.2"/>
<line class="st22" x1="925.8" y1="618.4" x2="883.1" y2="567.4"/>
<line class="st22" x1="915.7" y1="626.8" x2="873" y2="575.8"/>
<path class="st18" d="M466.5,449.9c0.7-3.8-0.3-3.2,0.7-16.3c1.6-20.6,2.7-27.5,2.7-27.5c7.8-4,31.9,26.1,31.9,26.1l1.1,3.3
	c-1.9,0.5-0.9,30.2-1,30.9c-0.1,0.7-11.9,15.3-12.6,15.4C489.3,481.9,465.6,454.7,466.5,449.9z"/>
<path class="st24" d="M105,457.2l-25.3-25.3c-1.2-1.2-1.2-3.2,0-4.4l11.2-11.2c1.2-1.2,3.2-1.2,4.4,0l25.3,25.3
	c1.2,1.2,1.2,3.2,0,4.4l-11.2,11.2C108.1,458.4,106.2,458.4,105,457.2z"/>
<path class="st24" d="M173.3,525.5L148,500.2c-1.2-1.2-1.2-3.2,0-4.4l11.2-11.2c1.2-1.2,3.2-1.2,4.4,0l25.3,25.3
	c1.2,1.2,1.2,3.2,0,4.4l-11.2,11.2C176.5,526.7,174.5,526.7,173.3,525.5z"/>
<path class="st12" d="M101.6,462c-0.2,0-2.7,5.4-1.3,10.4c0.2,0.7,0.6,2.1,4.3,6.4c2.2,2.6,4.9,5.5,10,10c5.2,4.7,5.5,4.4,8.5,7.5
	c3.7,3.7,3.9,4.6,5.7,5.7c2.5,1.5,6.6,2.4,13.8-0.1c8.7,9.4,17.3,18.7,26,28.1c-2.2,1.3-5.4,2.9-9.6,3.9
	c-15.2,3.5-28.8-5.1-39.8-12.1c-13.9-8.9-22.1-18.4-29.5-27c-12.3-14.3-16.9-24.4-19.2-30.6c-2.4-6.4-4.9-12.7-1.7-22.3
	c1-2.9,3.5-8.7,3.5-8.7S93.3,455.2,101.6,462"/>
<path class="st26" d="M679.5,581.3c-5-4.1,1.6-27.4,4.1-29.5c0.7-0.6-0.2-1.9-0.4-4.1c-0.2-3-0.3-4.4-2-7.3
	c-4.2-7.4-6.8-18.3-3.2-27c3.3-7.9,9.6-11.9,12.8-13.9c1.1-0.7,6.8-4.1,15.3-5.3c6.9-1,8.9,0.5,23.5,2.1c10.4,1.2,15.6,1.8,21,1.1
	c1.7-0.2,11.8-1.6,19.9-7.1c5-3.4,8.1-5.5,9.4-8.6c0.1-0.2,1.1-1.4,1.5-1.5c2.1-0.9,4.8,9.6,14.4,19.3c3.5,3.6,6.2,5.6,8.5,10
	c0.8,1.6,3.2,6.4,3.2,6.4c7.1-9-10.8,13.1-14.2,18.8c-6.4,10.5-8.1,18.7-8.5,20.6c-2,9.7-0.4,15.1,0,16.4c1.4,4.2,2.3,7,4.6,8.7
	c0.4,0.3,1.1,0.8,1.1,1.3c-0.2,0.9-3.6,1.3-6.4,0.7c-1.2-0.3-3.3-1-6.4-3.9c-1.8-1.7-3.7-3.2-6-8.5c-2-4.6-2.8-10-2.8-13.2
	c-0.1-5.5,1.1-9.7,0.2-10.3c-0.9-0.6-5.7,2.7-8,6c-1.7,2.5-2.4,4.7-3.6,8.2c-1.3,3.9-1.9,5.8-1.8,7.5c0.3,4.4,3.1,5.8,2.5,9.6
	c-0.1,0.7-0.5,2.8-2.1,3.9c-2.2,1.5-5.7,0.8-7.5-1.1c-1.6-1.7-0.8-3.6-1.1-8.9c-0.3-6.7-1.6-6.2-1.4-10.7c0.1-3.7,0-5.4,1.2-11.7
	c0.3-1.6,0.8-4.4,1-7.9c0.1-2.2,0,0-0.8-2.8c0,0-5.3-1.3-7.1,0.4c-1.1,1.1,0.7-2.9,0,0c-1,4.2-4.7,6.8-7.1,8.5c-4,2.9-6,1.2-6.4,3.6
	c-0.4,2-3,14.3,1.3,20.4c2,2.9,5.2,4,5.1,7.3c0,1.8-0.7,4.2-2.5,5c-2.7,1.2-6.2-2.3-6.8-2.8c-1.8-1.8-2-3.1-4.3-8.9
	c-3.2-8.3-3.7-7.1-5.3-10c-2.3-4.1-2.4-4.1-3.4-7.1c-0.7-2.1-0.2-4.5-1.6-7.1c-1.9-3.5,0.3-1.2-0.6-1.3c-1-0.2-2.5,0-4.9,2.2
	c-4.3,3.9-4.4,3.1-9.1,9.8c-0.9,1.3-7.6,10.9-6.8,15.6c0.7,4.2,2.1,5.5,2.1,5.5c0.2,0.2,0.4,0.3,0.4,0.6
	C690.4,581.5,682.7,583.9,679.5,581.3z"/>
<path class="st26" d="M754.5,435.2c1.3,3.1,3.5,7.5,7.5,11.7c14.9,16,38.6,12.6,42,12.1c3.5-0.6,17.5-3.1,26.3-12.8
	c6.1-6.7,8-14.8,9.5-16.9c0-0.1,0.2-0.3,0.1-0.5c-0.3-0.6-2.5,0.2-3.9,0c-2.7-0.4-3.8-4.7-5-7.5c-4.2-9.5-15.7-13.2-17.8-13.9
	c-5.1-1.6-9.8-1.6-12.1-1.4c-0.9,0.1-3.3,0.3-6.4,1.1c-3.2,0.8-14.8,3.8-22.8,14.6c-1.6,2.1-3.7,5.5-5.3,10.3"/>
<path class="st26" d="M686.3,509.3c-2-0.6-4.7-1.4-7.8-2.5c-4-1.4-11.3-4.3-20.3-9.8c-9.9-6-14.9-9-18.1-14.2
	c-1.3-2.1-4.7-7.6-4.4-15.1c0.4-13.1,11.6-24.4,18.1-25.9c0.4-0.1,1.4-0.3,1.5-0.8c0.2-1.5-9.4-3.5-17.2-6.4
	c-5.6-2.1-19.2-7.1-28.3-19c-7.8-10.3-8.9-21.5-9.2-25.1c0,0-1-11.1,11.7-37.7c0.1-0.2,0.5-1,0.7-0.9c0.6,0.1,0,4.7,0,10
	c0,0,0,4.2,0.7,9.6c1.1,8.4,3.8,14.7,5.3,18.1c3.4,7.8,7.3,13,10.5,17.2c7.2,9.6,14.2,15.6,15.8,16.9c9.9,8.3,22.4,15.4,25.9,15.6
	c0.1,0,0.5,0,0.6,0.3c0.6,1.1-5.8,5-10.8,10.3c-2.6,2.8-6.8,7.2-8.4,13.3c-2.5,10.2,3.8,19.5,5.2,21.5c3.3,4.9,8.4,8.3,18.7,15.1
	c4.8,3.2,8.9,5.7,11.7,7.3"/>
<path class="st26" d="M798.9,474.7c-5.2-0.4-11.5-12.9-6.5-19.3c3.8-5,13.7-5.3,16.7-1.2c2,2.9,0.3,7.3-0.8,10.1
	C807,467.6,803.1,475,798.9,474.7z"/>
<path class="st26" d="M764.9,434.1c-2-4-3-7.4-3.6-9.8c-4.5-20.6,9.6-36.2,12-42.7c0,0,0-0.1,0.1-0.2c1.2-0.6,10.3,9.4,13.9,21.7
	c1.7,6,1.2,9.3,3.7,10.5c3.1,1.4,7.8-1.5,10.5-4.4c2.2-2.4,2.7-4.5,3.6-6.4c5.5-12.7,24.4-18.7,24.4-18.7l0,0
	c1.2,3.8,2.2,8.3,2.8,13.3c1.3,10.7-0.1,19.8-1.6,26.1"/>
<path class="st27" d="M769.6,422.8c1,0.3,1.4-1.6,5.1-4.8c4.5-3.9,10.1-6.4,10.1-6.4l0,0c0,0-2.9-7.6-6.3-14c-3-5.7-3.8-5.6-4.4-7.6
	c0-0.1-0.1-0.4-0.3-0.4c-0.9-0.2-3.2,7.6-4.4,13.9C768,411.2,767.3,422.2,769.6,422.8z"/>
<path class="st27" d="M811.6,406.4c1.6-3.8,7.9-9.1,14.1-14.2c0.1-0.1,0.3-0.5,0.5-0.5c1.7,0.1,1.2,24.1,1.2,24.1l0,0
	c-6.5-4.8-7.6-5.5-7.6-5.5C814.2,407.1,811,407.9,811.6,406.4z"/>
<path class="st28" d="M811.6,432c-1.5-2.8,2.4-7.8,5.3-10.5c1.5-1.4,7.1-3.8,5.3-2.8l0,0c0,0,2.1,3.5,2.7,7.5
	c0.2,1.7,0.5,3.4-0.4,5.3c-0.2,0.5-1.2,2.8-3.6,3.7c-3,1.2-5.9-0.6-7.3-1.4C812.6,433.1,812,432.7,811.6,432z"/>
<path class="st28" d="M782.3,425.4c-2.3,1.4-2.3,6.7-0.2,10.1c0.2,0.3,2.7,4.3,7.1,4.8c6.4,0.7,13.1-6.4,13.2-6.4l0,0
	c0,0-2.1-4-5-6.2c-2.5-2-6-2.2-12.8-2.7C783.7,425,783,425,782.3,425.4z"/>
<path class="st26" d="M789.6,423.4c-0.8,0.5-0.3,1.5-0.5,6.3c-0.1,1.2-0.1,2.4,0.1,4.1c0.2,1.3,0.3,2.7,0.8,2.8
	c0.7,0.1,1.6-2.5,2-4.1c0.4-1.6,0.1-1.6,0.6-4.4c0.4-2.4,0.7-3,0.3-3.7C792.2,423.3,790.5,422.8,789.6,423.4z"/>
<path class="st26" d="M812.9,425.3c0.4,1.3,0.6,2.5,0.6,3.5c0.1,1.7,0,2.8,0.6,3.2c0.5,0.3,1.7,0.1,1.7-0.4c0.3-3.1-0.4-8.5-0.9-9.9
	"/>
<path class="st29" d="M468.9,405.3c-0.7,9.9-1,17.2-0.8,17.9c0.5,1.6,3.3,14.4,33,27.7c0.1,0,0.3,0.2,0.5,0.1c0,0,0.1-4.6,0.5-11.2"
	/>
<path class="st30" d="M755.6,477.3c7.8-2.1,15.6-4.1,23.5-6.2c1.4,3.7,0.9,6.5,2.1,9.9c2.9,8.5,5.7,11.7,8.4,14.6
	c4.5,4.8,5.5,4.1,8.4,8.2c1.7,2.4,2.3,4.1,5.5,9.4c3.5,5.7,4.2,6,4.8,6c3.5,0,6.1-11.9,6.4-13.3c1.5-6.9,0.1-7.4,1.4-17.1
	c1-7.4,2-8.6,1.4-12.8c-0.3-1.9-1.4-4.8-3.6-10.5c-2.3-6.1-3.8-7.9-3.8-7.9c-0.9-0.1-5.6,6-6.7,7.9c-1.3,2.1-1.9,2.5-2.5,3.6
	c-0.1,0.3-0.4,0.7-0.4,0.8c-0.5,0.9-0.8,1.3-0.8,1.4c-1.1,0.2-4.5-11.6-4.5-11.6l-1.1,0c-7.1-0.7-8.4-0.7-8.7-0.1
	c-0.1,0.4,0.5,6.2-0.9,6.9c-0.7,0.4-1.8-0.6-3-1.6c-6-5-11.9-9.2-11.9-9.2l0,0c0,0-10.3-0.6-26.3-1.4"/>
<line class="st31" x1="743.3" y1="454.2" x2="755.6" y2="477.3"/>
<line class="st31" x1="783.6" y1="466.4" x2="779.1" y2="471.1"/>
<g>
	<path d="M760.2,464c0,0,0.3,0,0.9,0.1c0.6,0.1,1.4,0.2,2.3,0.4c1.9,0.3,4.5,0.8,7,1.4c2.5,0.6,5,1.3,6.9,1.8
		c0.9,0.3,1.7,0.6,2.3,0.7c0.5,0.2,0.8,0.3,0.8,0.3s-0.3,0-0.9-0.1c-0.6-0.1-1.4-0.2-2.3-0.4c-1.9-0.3-4.5-0.8-7-1.4
		c-2.5-0.6-5-1.3-6.9-1.8c-0.9-0.3-1.7-0.6-2.3-0.7C760.5,464.1,760.2,464,760.2,464z"/>
</g>
<path class="st32" d="M471.7,371.4c-6.3,9.4-5.3,20.1-5,24.2c1.3,14.7,9.8,24.1,14.9,29.9c6.2,7,14.3,16,27,17.1
	c2.9,0.2,10.8,0.5,18.5-4.3c8.1-5,11.3-12.6,12.8-16.4c2.4-5.9,2.3-3.7,5-18.8c0.6-3.4,1.5-8.7,3.4-19.6c1.4-7.8,0.8-13.9-1.3-17.8
	c-1.4-2.6-2.7-2.8-7.1-6.4c-5.9-4.8-16.6-13.5-19.4-24.8c-0.4-1.5-0.5-2.6-1.3-2.9c-3.3-1.5-9,11.9-22,22.8
	C484.5,364.9,478.1,361.9,471.7,371.4z"/>
<path class="st33" d="M483,370.6c9.2,0,18.5,0,27.7,0c1.9,0,3.4,1.2,3.4,2.8v14.9c0,1.4-1.4,2.6-3.2,2.6h-24.4c-2,0-3.6-1.3-3.6-2.9
	V370.6"/>
<line class="st33" x1="483" y1="379.6" x2="465.7" y2="384.7"/>
<path class="st33" d="M518,370.6c9.2,0,18.5,0,27.7,0c1.9,0,3.4,1.2,3.4,2.8v14.9c0,1.4-1.4,2.6-3.2,2.6h-24.4c-2,0-3.6-1.3-3.6-2.9
	V370.6L518,370.6"/>
<path class="st33" d="M514.1,381.4c0.1-0.7,0.8-1.3,1.8-1.3c0.9-0.1,1.7,0.3,2.1,0.9"/>
<g>
	<path d="M492.9,382.3c0,0,0.6-0.7,1.7-1.3c1.1-0.7,2.9-1.3,4.7-1.3c0.4,0,0.9,0,1.3,0.1c0.4,0,0.9,0.1,1.3,0.3
		c0.8,0.2,1.5,0.5,2.1,0.9c1.1,0.7,1.7,1.3,1.7,1.3s-0.2-0.1-0.5-0.3c-0.3-0.2-0.8-0.4-1.4-0.6c-0.6-0.2-1.3-0.5-2.1-0.6
		c-0.4-0.1-0.8-0.1-1.2-0.2c-0.4,0-0.8-0.1-1.2-0.1c-1.7,0-3.3,0.4-4.5,0.9c-0.6,0.2-1.1,0.5-1.4,0.7
		C493.1,382.2,492.9,382.3,492.9,382.3z"/>
</g>
<g>
	<path d="M527.1,381.9c0,0,0.6-0.7,1.7-1.3c1.1-0.7,2.9-1.3,4.7-1.3c0.4,0,0.9,0,1.3,0.1c0.4,0,0.9,0.1,1.3,0.3
		c0.8,0.2,1.5,0.5,2.1,0.9c1.1,0.7,1.7,1.3,1.7,1.3s-0.2-0.1-0.5-0.3c-0.3-0.2-0.8-0.4-1.4-0.6c-0.6-0.2-1.3-0.5-2.1-0.6
		c-0.4-0.1-0.8-0.1-1.2-0.2c-0.4,0-0.8-0.1-1.2-0.1c-1.7,0-3.3,0.4-4.5,0.9c-0.6,0.2-1.1,0.5-1.4,0.7
		C527.3,381.8,527.1,381.9,527.1,381.9z"/>
</g>
<g>
	<path d="M792.3,478c0.2,1.4,0.6,2.8,1.2,4c0.6,1.3,1.3,2.4,2.2,3.5c0.9,1.1,1.9,2,2.9,2.9c0.5,0.4,1.1,0.9,1.6,1.3
		c0.6,0.4,1.2,0.8,1.7,1.1l-0.6,0.1c0.5-0.4,0.9-0.9,1.4-1.3c0.4-0.5,0.9-1,1.3-1.5c0.8-1,1.5-2.1,2.2-3.2c0.6-1.1,1.1-2.3,1.5-3.6
		c0.4-1.2,0.5-2.6,0.5-3.9c0.1,0.7,0.2,1.3,0.1,2c0,0.7-0.1,1.3-0.2,2c-0.2,1.3-0.7,2.6-1.3,3.8c-0.6,1.2-1.3,2.4-2.1,3.4
		c-0.4,0.5-0.8,1.1-1.3,1.6c-0.5,0.5-0.9,1-1.5,1.4l-0.3,0.2l-0.3-0.2c-0.7-0.4-1.2-0.8-1.8-1.2c-0.6-0.4-1.2-0.9-1.7-1.3
		c-1.1-1-2.1-2-2.9-3.2c-0.8-1.2-1.6-2.4-2.1-3.8c-0.2-0.7-0.4-1.4-0.5-2.1c-0.1-0.4-0.1-0.7-0.1-1.1
		C792.3,478.7,792.3,478.4,792.3,478z"/>
</g>
<g>
	<path class="st3" d="M511.1,308.2c0,0-0.9,0.2-2.7,0.6c-0.9,0.2-1.9,0.4-3.2,0.7c-1.2,0.3-2.7,0.7-4.3,1.1c-3.2,0.9-7,2.1-11.2,3.8
		c-4.2,1.7-8.8,4-13.5,7.1c-4.6,3.1-9.2,7-13.3,11.9l-0.7,0.9l-0.3,0.4l-0.4,0.5c-0.5,0.7-1,1.3-1.4,2c-0.2,0.3-0.5,0.7-0.7,1
		l-0.6,1c-0.4,0.7-0.8,1.4-1.3,2.1c-1.6,2.9-3.1,6-4.3,9.2c-2.5,6.5-4.3,13.6-6.7,20.7c-2.3,7.1-5,14.3-8.2,21.2
		c-0.8,1.7-1.7,3.4-2.5,5.1l-1.3,2.5l-1.4,2.5l-1.4,2.5l-0.7,1.3l-0.7,1.2c-1.1,1.7-2.3,3.2-3.5,4.7c-2.4,2.9-4.9,5.5-7,8.4
		c-2.1,2.8-3.9,5.8-5.3,8.9c-1.4,3.1-2.4,6.3-3.2,9.6c-0.8,3.2-1.3,6.5-1.8,9.7c-0.9,6.4-1.5,12.5-2,18.1c-0.5,5.6-0.8,10.8-1,15.4
		c-0.2,4.6-0.3,8.6-0.4,11.9c0,3.3-0.1,5.9-0.1,7.7c0,1.8,0,2.7,0,2.7s-0.1-0.9-0.2-2.7c-0.1-1.8-0.3-4.4-0.5-7.7
		c-0.3-6.6-0.6-16.1-0.1-27.4c0.2-5.7,0.6-11.8,1.3-18.3c0.4-3.3,0.8-6.6,1.5-10c0.7-3.4,1.7-6.9,3.2-10.3c1.4-3.4,3.3-6.7,5.5-9.7
		c2.2-3.1,4.7-5.8,7.1-8.6c1.2-1.4,2.3-2.8,3.2-4.3l0.7-1.2l0.7-1.2l1.4-2.4l1.4-2.4l1.3-2.5c0.8-1.7,1.7-3.3,2.5-5
		c3.2-6.7,5.9-13.7,8.2-20.7c2.3-7,4.4-14.1,7.1-20.8c1.3-3.4,2.9-6.6,4.7-9.6c0.5-0.7,1-1.5,1.4-2.2l0.7-1.1c0.2-0.4,0.5-0.7,0.8-1
		c0.5-0.7,1-1.3,1.5-2l0.4-0.5c0.2-0.3,0.3-0.3,0.4-0.5l0.8-1c4.4-5,9.4-8.9,14.3-11.9c4.9-3,9.8-5,14.2-6.6
		c4.4-1.6,8.3-2.4,11.6-3.2c3.3-0.7,5.8-1.1,7.6-1.3C510.2,308.4,511.1,308.2,511.1,308.2z"/>
</g>
<path class="st34" d="M507.8,328.5c-26.4,5.9-37.4,16.9-42.5,26.3c-8.1,15.2-0.8,26.1-10.5,51.3c-3.3,8.4-2.9,4-17,31
	c-11.5,22-14.9,31-17,41.2c-1.9,9.4-2.1,17.5-2,22.9"/>
</svg>
